<svg width="150" height="150" viewBox="0 0 150 150" fill="none" xmlns="http://www.w3.org/2000/svg">
<rect width="150" height="150" rx="19" fill="#05120E"/>
<path d="M72.32 51.576C73.088 54.2 73.92 57.176 74.816 60.504C75.776 63.768 76.768 67.16 77.792 70.68C78.88 74.2 79.968 77.72 81.056 81.24C82.144 84.76 83.2 88.024 84.224 91.032C85.056 87.768 85.888 84.216 86.72 80.376C87.616 76.536 88.448 72.568 89.216 68.472C89.984 64.376 90.72 60.312 91.424 56.28C92.192 52.184 92.896 48.248 93.536 44.472H109.088C106.848 55.608 104.256 66.904 101.312 78.36C98.432 89.816 95.296 100.696 91.904 111H78.176C75.936 104.856 73.76 98.424 71.648 91.704C69.536 84.92 67.456 78.136 65.408 71.352C63.36 78.136 61.312 84.92 59.264 91.704C57.216 98.424 55.072 104.856 52.832 111H39.104C35.712 100.696 32.544 89.816 29.6 78.36C26.72 66.904 24.16 55.608 21.92 44.472H38.144C38.784 48.248 39.488 52.184 40.256 56.28C41.024 60.312 41.824 64.376 42.656 68.472C43.488 72.568 44.32 76.536 45.152 80.376C46.048 84.216 46.944 87.768 47.84 91.032C48.992 87.896 50.112 84.568 51.2 81.048C52.288 77.528 53.344 74.008 54.368 70.488C55.392 66.968 56.32 63.576 57.152 60.312C58.048 57.048 58.848 54.136 59.552 51.576H72.32Z" fill="white"/>
<path d="M127.549 103.416C127.549 106.296 126.621 108.504 124.765 110.04C122.973 111.512 120.925 112.248 118.621 112.248C116.317 112.248 114.237 111.512 112.381 110.04C110.589 108.504 109.693 106.296 109.693 103.416C109.693 100.536 110.589 98.36 112.381 96.888C114.237 95.352 116.317 94.584 118.621 94.584C120.925 94.584 122.973 95.352 124.765 96.888C126.621 98.36 127.549 100.536 127.549 103.416Z" fill="#0BB574"/>
</svg>
