<svg width="394" height="243" viewBox="0 0 394 243" fill="none" xmlns="http://www.w3.org/2000/svg">
<path d="M393.132 174.477C390.252 184.205 387.244 193.325 384.108 201.837C380.972 210.349 377.548 218.605 373.836 226.605C372.492 229.485 371.148 231.917 369.804 233.901C368.46 235.949 366.988 237.613 365.388 238.893C363.788 240.237 361.964 241.197 359.916 241.773C357.932 242.413 355.596 242.733 352.908 242.733C350.668 242.733 348.588 242.509 346.668 242.061C344.812 241.677 343.276 241.229 342.06 240.717L344.556 229.293C346.028 229.805 347.34 230.157 348.492 230.349C349.644 230.541 350.86 230.637 352.14 230.637C354.7 230.637 356.652 229.933 357.996 228.525C359.404 227.181 360.588 225.293 361.548 222.861C358.284 216.461 355.02 209.293 351.756 201.357C348.492 193.357 345.42 184.397 342.54 174.477H357.708C358.348 176.973 359.084 179.693 359.916 182.637C360.812 185.517 361.74 188.461 362.7 191.469C363.66 194.413 364.62 197.293 365.58 200.109C366.604 202.925 367.564 205.485 368.46 207.789C369.292 205.485 370.156 202.925 371.052 200.109C371.948 197.293 372.812 194.413 373.644 191.469C374.54 188.461 375.372 185.517 376.14 182.637C376.972 179.693 377.708 176.973 378.348 174.477H393.132Z" fill="white"/>
<path d="M327.063 150.477C329.751 150.477 332.215 150.765 334.455 151.341C336.695 151.853 338.423 152.365 339.639 152.877L336.855 164.301C335.575 163.725 334.167 163.309 332.631 163.053C331.159 162.733 329.783 162.573 328.503 162.573C326.775 162.573 325.303 162.829 324.087 163.341C322.935 163.789 322.007 164.429 321.303 165.261C320.663 166.093 320.183 167.085 319.863 168.237C319.607 169.389 319.479 170.637 319.479 171.981V174.477H337.143V186.381H319.479V224.973H305.175V171.789C305.175 165.261 306.999 160.077 310.647 156.237C314.359 152.397 319.831 150.477 327.063 150.477Z" fill="white"/>
<path d="M291.729 224.973H277.425V174.477H291.729V224.973ZM293.073 159.885C293.073 162.509 292.209 164.589 290.481 166.125C288.817 167.597 286.833 168.333 284.529 168.333C282.225 168.333 280.209 167.597 278.481 166.125C276.817 164.589 275.985 162.509 275.985 159.885C275.985 157.261 276.817 155.213 278.481 153.741C280.209 152.205 282.225 151.437 284.529 151.437C286.833 151.437 288.817 152.205 290.481 153.741C292.209 155.213 293.073 157.261 293.073 159.885Z" fill="white"/>
<path d="M267.21 225.933C263.05 225.869 259.658 225.421 257.034 224.589C254.474 223.757 252.426 222.605 250.89 221.133C249.418 219.597 248.394 217.773 247.818 215.661C247.306 213.485 247.05 211.053 247.05 208.365V152.781L261.354 150.477V205.485C261.354 206.765 261.45 207.917 261.642 208.941C261.834 209.965 262.186 210.829 262.698 211.533C263.274 212.237 264.074 212.813 265.098 213.261C266.122 213.709 267.498 213.997 269.226 214.125L267.21 225.933Z" fill="white"/>
<path d="M205.76 192.717C207.168 191.181 208.608 189.581 210.08 187.917C211.616 186.253 213.088 184.621 214.496 183.021C215.904 181.357 217.216 179.789 218.432 178.317C219.712 176.845 220.8 175.565 221.696 174.477H238.688C235.296 178.381 231.968 182.125 228.704 185.709C225.504 189.229 221.984 192.877 218.144 196.653C220.064 198.381 222.048 200.461 224.096 202.893C226.144 205.261 228.128 207.725 230.048 210.285C231.968 212.845 233.728 215.405 235.328 217.965C236.928 220.525 238.272 222.861 239.36 224.973H222.944C221.92 223.309 220.736 221.485 219.392 219.501C218.112 217.453 216.736 215.437 215.264 213.453C213.792 211.405 212.224 209.453 210.56 207.597C208.96 205.741 207.36 204.173 205.76 202.893V224.973H191.456V152.781L205.76 150.477V192.717Z" fill="white"/>
<path d="M181.388 187.149C180.108 186.829 178.604 186.509 176.876 186.189C175.148 185.805 173.292 185.613 171.308 185.613C170.412 185.613 169.324 185.709 168.044 185.901C166.828 186.029 165.9 186.189 165.26 186.381V224.973H150.956V177.165C153.516 176.269 156.524 175.437 159.98 174.669C163.5 173.837 167.404 173.421 171.692 173.421C172.46 173.421 173.388 173.485 174.476 173.613C175.564 173.677 176.652 173.805 177.74 173.997C178.828 174.125 179.916 174.317 181.004 174.573C182.092 174.765 183.02 175.021 183.788 175.341L181.388 187.149Z" fill="white"/>
<path d="M139.876 199.629C139.876 203.597 139.3 207.245 138.148 210.573C136.996 213.837 135.332 216.653 133.156 219.021C130.98 221.325 128.356 223.117 125.284 224.397C122.276 225.677 118.884 226.317 115.108 226.317C111.396 226.317 108.004 225.677 104.932 224.397C101.924 223.117 99.3317 221.325 97.1557 219.021C94.9797 216.653 93.2837 213.837 92.0677 210.573C90.8517 207.245 90.2437 203.597 90.2437 199.629C90.2437 195.661 90.8517 192.045 92.0677 188.781C93.3477 185.517 95.0757 182.733 97.2517 180.429C99.4917 178.125 102.116 176.333 105.124 175.053C108.196 173.773 111.524 173.133 115.108 173.133C118.756 173.133 122.084 173.773 125.092 175.053C128.164 176.333 130.788 178.125 132.964 180.429C135.14 182.733 136.836 185.517 138.052 188.781C139.268 192.045 139.876 195.661 139.876 199.629ZM125.284 199.629C125.284 195.213 124.388 191.757 122.596 189.261C120.868 186.701 118.372 185.421 115.108 185.421C111.844 185.421 109.316 186.701 107.524 189.261C105.732 191.757 104.836 195.213 104.836 199.629C104.836 204.045 105.732 207.565 107.524 210.189C109.316 212.749 111.844 214.029 115.108 214.029C118.372 214.029 120.868 212.749 122.596 210.189C124.388 207.565 125.284 204.045 125.284 199.629Z" fill="white"/>
<path d="M50.4 165.549C51.168 168.173 52 171.149 52.896 174.477C53.856 177.741 54.848 181.133 55.872 184.653C56.96 188.173 58.048 191.693 59.136 195.213C60.224 198.733 61.28 201.997 62.304 205.005C63.136 201.741 63.968 198.189 64.8 194.349C65.696 190.509 66.528 186.541 67.296 182.445C68.064 178.349 68.8 174.285 69.504 170.253C70.272 166.157 70.976 162.221 71.616 158.445H87.168C84.928 169.581 82.336 180.877 79.392 192.333C76.512 203.789 73.376 214.669 69.984 224.973H56.256C54.016 218.829 51.84 212.397 49.728 205.677C47.616 198.893 45.536 192.109 43.488 185.325C41.44 192.109 39.392 198.893 37.344 205.677C35.296 212.397 33.152 218.829 30.912 224.973H17.184C13.792 214.669 10.624 203.789 7.68 192.333C4.8 180.877 2.24 169.581 0 158.445H16.224C16.864 162.221 17.568 166.157 18.336 170.253C19.104 174.285 19.904 178.349 20.736 182.445C21.568 186.541 22.4 190.509 23.232 194.349C24.128 198.189 25.024 201.741 25.92 205.005C27.072 201.869 28.192 198.541 29.28 195.021C30.368 191.501 31.424 187.981 32.448 184.461C33.472 180.941 34.4 177.549 35.232 174.285C36.128 171.021 36.928 168.109 37.632 165.549H50.4Z" fill="white"/>
<path d="M131 19C131 8.50658 139.507 0 150 0H243C253.493 0 262 8.50659 262 19V99.954C262 110.447 253.493 118.954 243 118.954H150C139.507 118.954 131 110.447 131 99.954V19Z" fill="#05120E"/>
<path d="M236.122 78.2568C236.122 80.4251 235.424 82.0874 234.027 83.2438C232.677 84.3521 231.135 84.9062 229.401 84.9062C227.666 84.9062 226.1 84.3521 224.703 83.2438C223.354 82.0874 222.679 80.4251 222.679 78.2568C222.679 76.0885 223.354 74.4503 224.703 73.342C226.1 72.1856 227.666 71.6074 229.401 71.6074C231.135 71.6074 232.677 72.1856 234.027 73.342C235.424 74.4503 236.122 76.0885 236.122 78.2568Z" fill="#0BB574"/>
<path d="M194.542 39.2278C195.121 41.2034 195.747 43.4439 196.422 45.9495C197.144 48.4069 197.891 50.9606 198.662 53.6107C199.481 56.2608 200.3 58.9109 201.12 61.5611C201.939 64.2112 202.734 66.6686 203.505 68.9332C204.131 66.4758 204.757 63.8016 205.384 60.9106C206.058 58.0195 206.685 55.0321 207.263 51.9484C207.841 48.8646 208.395 45.8049 208.925 42.7693C209.504 39.6856 210.034 36.7223 210.515 33.8794H222.224C220.538 42.2634 218.586 50.7679 216.37 59.3928C214.202 68.0177 211.841 76.209 209.287 83.9666H198.951C197.265 79.3409 195.627 74.4984 194.037 69.4391C192.446 64.3316 190.88 59.2241 189.339 54.1166C187.797 59.2241 186.255 64.3316 184.713 69.4391C183.171 74.4984 181.557 79.3409 179.87 83.9666H169.535C166.981 76.209 164.596 68.0177 162.38 59.3928C160.211 50.7679 158.284 42.2634 156.598 33.8794H168.812C169.294 36.7223 169.824 39.6856 170.402 42.7693C170.981 45.8049 171.583 48.8646 172.209 51.9484C172.836 55.0321 173.462 58.0195 174.088 60.9106C174.763 63.8016 175.438 66.4758 176.112 68.9332C176.979 66.5722 177.823 64.0666 178.642 61.4165C179.461 58.7664 180.256 56.1163 181.027 53.4662C181.798 50.8161 182.497 48.2623 183.123 45.8049C183.797 43.3475 184.4 41.1552 184.93 39.2278H194.542Z" fill="white"/>
</svg>
