<svg width="183" height="113" viewBox="0 0 183 113" fill="none" xmlns="http://www.w3.org/2000/svg">
<path d="M183 81.2246C181.659 85.7533 180.259 89.999 178.799 93.9616C177.34 97.9242 175.746 101.768 174.018 105.492C173.392 106.833 172.767 107.965 172.141 108.888C171.515 109.842 170.83 110.616 170.085 111.212C169.341 111.838 168.492 112.285 167.538 112.553C166.615 112.851 165.527 113 164.276 113C163.233 113 162.265 112.896 161.371 112.687C160.507 112.508 159.792 112.3 159.226 112.061L160.388 106.743C161.073 106.982 161.684 107.145 162.22 107.235C162.757 107.324 163.323 107.369 163.919 107.369C165.11 107.369 166.019 107.041 166.644 106.386C167.3 105.76 167.851 104.881 168.298 103.749C166.778 100.77 165.259 97.4326 163.74 93.7382C162.22 90.0139 160.79 85.8427 159.45 81.2246H166.51C166.808 82.3866 167.151 83.6529 167.538 85.0234C167.955 86.3641 168.387 87.7347 168.834 89.135C169.281 90.5055 169.728 91.8462 170.175 93.1572C170.651 94.4681 171.098 95.6599 171.515 96.7325C171.903 95.6599 172.305 94.4681 172.722 93.1572C173.139 91.8462 173.541 90.5055 173.928 89.135C174.346 87.7347 174.733 86.3641 175.09 85.0234C175.478 83.6529 175.82 82.3866 176.118 81.2246H183Z" fill="#05120E"/>
<path d="M152.245 70.0519C153.497 70.0519 154.644 70.1859 155.686 70.4541C156.729 70.6924 157.533 70.9308 158.099 71.1691L156.803 76.4874C156.208 76.2192 155.552 76.0256 154.837 75.9064C154.152 75.7574 153.512 75.6829 152.916 75.6829C152.111 75.6829 151.426 75.8021 150.86 76.0405C150.324 76.249 149.892 76.547 149.564 76.9343C149.266 77.3216 149.043 77.7834 148.894 78.3197C148.775 78.856 148.715 79.437 148.715 80.0627V81.2246H156.938V86.7663H148.715V104.732H142.057V79.9733C142.057 76.9343 142.906 74.521 144.604 72.7333C146.332 70.9457 148.879 70.0519 152.245 70.0519Z" fill="#05120E"/>
<path d="M135.798 104.732H129.139V81.2246H135.798V104.732ZM136.423 74.4316C136.423 75.6531 136.021 76.6215 135.217 77.3365C134.442 78.0218 133.519 78.3644 132.446 78.3644C131.374 78.3644 130.435 78.0218 129.631 77.3365C128.856 76.6215 128.469 75.6531 128.469 74.4316C128.469 73.21 128.856 72.2566 129.631 71.5714C130.435 70.8563 131.374 70.4988 132.446 70.4988C133.519 70.4988 134.442 70.8563 135.217 71.5714C136.021 72.2566 136.423 73.21 136.423 74.4316Z" fill="#05120E"/>
<path d="M124.384 105.179C122.448 105.149 120.869 104.941 119.647 104.553C118.456 104.166 117.502 103.63 116.787 102.944C116.102 102.229 115.626 101.38 115.357 100.397C115.119 99.3841 115 98.2519 115 97.0006V71.1245L121.658 70.0519V95.6598C121.658 96.2557 121.703 96.792 121.792 97.2687C121.882 97.7454 122.046 98.1477 122.284 98.4754C122.552 98.8031 122.924 99.0713 123.401 99.2798C123.878 99.4884 124.518 99.6225 125.323 99.6821L124.384 105.179Z" fill="#05120E"/>
<path d="M95.7798 89.7159C96.4353 89.0009 97.1056 88.256 97.7908 87.4814C98.5058 86.7067 99.191 85.947 99.8464 85.2021C100.502 84.4275 101.113 83.6975 101.679 83.0123C102.274 82.327 102.781 81.7311 103.198 81.2246H111.108C109.529 83.0421 107.979 84.785 106.46 86.4535C104.971 88.0922 103.332 89.7904 101.545 91.5483C102.438 92.3527 103.362 93.321 104.315 94.4532C105.268 95.5556 106.192 96.7026 107.086 97.8944C107.979 99.0862 108.799 100.278 109.544 101.47C110.288 102.661 110.914 103.749 111.42 104.732H103.779C103.302 103.957 102.751 103.108 102.125 102.185C101.53 101.231 100.889 100.293 100.204 99.3692C99.5187 98.4158 98.7888 97.5071 98.0142 96.6431C97.2694 95.779 96.5246 95.0491 95.7798 94.4532V104.732H89.1214V71.1245L95.7798 70.0519V89.7159Z" fill="#05120E"/>
<path d="M84.4349 87.1239C83.839 86.9749 83.1389 86.8259 82.3346 86.6769C81.5302 86.4982 80.6663 86.4088 79.7427 86.4088C79.3256 86.4088 78.8192 86.4535 78.2233 86.5429C77.6573 86.6025 77.2253 86.6769 76.9274 86.7663V104.732H70.269V82.476C71.4607 82.0589 72.8609 81.6715 74.4696 81.314C76.1081 80.9267 77.9254 80.733 79.9215 80.733C80.279 80.733 80.7109 80.7628 81.2174 80.8224C81.7238 80.8522 82.2303 80.9118 82.7368 81.0012C83.2432 81.0608 83.7497 81.1502 84.2561 81.2693C84.7626 81.3587 85.1946 81.4779 85.5521 81.6269L84.4349 87.1239Z" fill="#05120E"/>
<path d="M65.1111 92.9337C65.1111 94.7809 64.843 96.4792 64.3067 98.0285C63.7705 99.548 62.9959 100.859 61.983 101.961C60.9701 103.034 59.7486 103.868 58.3186 104.464C56.9184 105.06 55.3395 105.358 53.5818 105.358C51.8539 105.358 50.2749 105.06 48.8449 104.464C47.4447 103.868 46.2382 103.034 45.2253 101.961C44.2124 100.859 43.4229 99.548 42.8568 98.0285C42.2908 96.4792 42.0078 94.7809 42.0078 92.9337C42.0078 91.0865 42.2908 89.4031 42.8568 87.8836C43.4527 86.3641 44.2571 85.0681 45.27 83.9955C46.3127 82.9229 47.5341 82.0886 48.9343 81.4928C50.3643 80.8969 51.9135 80.5989 53.5818 80.5989C55.2799 80.5989 56.8291 80.8969 58.2293 81.4928C59.6593 82.0886 60.8807 82.9229 61.8936 83.9955C62.9065 85.0681 63.696 86.3641 64.2621 87.8836C64.8281 89.4031 65.1111 91.0865 65.1111 92.9337ZM58.3186 92.9337C58.3186 90.8779 57.9016 89.269 57.0674 88.107C56.263 86.9153 55.1012 86.3194 53.5818 86.3194C52.0624 86.3194 50.8857 86.9153 50.0515 88.107C49.2173 89.269 48.8003 90.8779 48.8003 92.9337C48.8003 94.9895 49.2173 96.6281 50.0515 97.8497C50.8857 99.0415 52.0624 99.6373 53.5818 99.6373C55.1012 99.6373 56.263 99.0415 57.0674 97.8497C57.9016 96.6281 58.3186 94.9895 58.3186 92.9337Z" fill="#05120E"/>
<path d="M23.4608 77.0684C23.8183 78.2899 24.2056 79.6753 24.6227 81.2246C25.0696 82.7441 25.5313 84.3232 26.008 85.9619C26.5145 87.6006 27.0209 89.2392 27.5274 90.8779C28.0338 92.5166 28.5254 94.0361 29.002 95.4364C29.3893 93.9169 29.7766 92.2633 30.1639 90.4757C30.581 88.688 30.9683 86.8408 31.3258 84.934C31.6833 83.0272 32.0259 81.1352 32.3536 79.2582C32.7111 77.3514 33.0388 75.5191 33.3367 73.7612H40.5761C39.5334 78.9454 38.3268 84.204 36.9564 89.5372C35.6158 94.8703 34.156 99.9353 32.577 104.732H26.1868C25.144 101.872 24.1311 98.8776 23.148 95.7492C22.1649 92.5911 21.1967 89.4329 20.2433 86.2747C19.29 89.4329 18.3367 92.5911 17.3834 95.7492C16.43 98.8776 15.432 101.872 14.3893 104.732H7.99902C6.42007 99.9353 4.94539 94.8703 3.57498 89.5372C2.23436 84.204 1.0427 78.9454 0 73.7612H7.55215C7.85007 75.5191 8.17777 77.3514 8.53527 79.2582C8.89277 81.1352 9.26516 83.0272 9.65245 84.934C10.0397 86.8408 10.427 88.688 10.8143 90.4757C11.2314 92.2633 11.6485 93.9169 12.0656 95.4364C12.6018 93.9765 13.1232 92.4272 13.6296 90.7885C14.1361 89.1498 14.6276 87.5112 15.1043 85.8725C15.581 84.2338 16.0129 82.6547 16.4002 81.1352C16.8173 79.6157 17.1897 78.2601 17.5174 77.0684H23.4608Z" fill="#05120E"/>
<path d="M60.9795 8.8451C60.9795 3.96008 64.9393 0 69.8239 0H113.115C117.999 0 121.959 3.96009 121.959 8.84511V46.5318C121.959 51.4168 117.999 55.3769 113.115 55.3769H69.8239C64.9393 55.3769 60.9795 51.4168 60.9795 46.5318V8.8451Z" fill="#05120E"/>
<path d="M109.913 36.431C109.913 37.4404 109.588 38.2143 108.938 38.7527C108.31 39.2686 107.592 39.5265 106.784 39.5265C105.977 39.5265 105.248 39.2686 104.598 38.7527C103.97 38.2143 103.656 37.4404 103.656 36.431C103.656 35.4216 103.97 34.659 104.598 34.1431C105.248 33.6047 105.977 33.3355 106.784 33.3355C107.592 33.3355 108.31 33.6047 108.938 34.1431C109.588 34.659 109.913 35.4216 109.913 36.431Z" fill="#0BB574"/>
<path d="M90.5581 18.2618C90.8272 19.1815 91.1188 20.2245 91.4328 21.3909C91.7693 22.5349 92.1169 23.7238 92.4758 24.9575C92.8571 26.1912 93.2384 27.4249 93.6197 28.6586C94.001 29.8924 94.371 31.0363 94.7299 32.0906C95.0215 30.9466 95.3131 29.7017 95.6047 28.3558C95.9187 27.01 96.2102 25.6192 96.4794 24.1836C96.7485 22.748 97.0065 21.3237 97.2532 19.9105C97.5224 18.4749 97.7691 17.0954 97.9934 15.7719H103.444C102.659 19.675 101.75 23.6341 100.719 27.6492C99.7092 31.6644 98.6102 35.4777 97.4214 39.0891H92.6104C91.8253 36.9357 91.0627 34.6814 90.3226 32.3261C89.5824 29.9484 88.8534 27.5707 88.1357 25.193C87.418 27.5707 86.7002 29.9484 85.9825 32.3261C85.2648 34.6814 84.5134 36.9357 83.7284 39.0891H78.9173C77.7285 35.4777 76.6183 31.6644 75.5865 27.6492C74.5772 23.6341 73.6801 19.675 72.895 15.7719H78.5809C78.8051 17.0954 79.0519 18.4749 79.321 19.9105C79.5902 21.3237 79.8705 22.748 80.1621 24.1836C80.4537 25.6192 80.7453 27.01 81.0369 28.3558C81.3509 29.7017 81.6649 30.9466 81.9789 32.0906C82.3826 30.9915 82.7751 29.8251 83.1564 28.5913C83.5377 27.3576 83.9078 26.1239 84.2667 24.8902C84.6255 23.6565 84.9508 22.4676 85.2423 21.3237C85.5563 20.1797 85.8367 19.159 86.0834 18.2618H90.5581Z" fill="white"/>
</svg>
